<?xml version="1.0" encoding="UTF-8" ?>
<!DOCTYPE svg PUBLIC "-//W3C//DTD SVG 1.1//EN" "http://www.w3.org/Graphics/SVG/1.1/DTD/svg11.dtd">
<svg width="882pt" height="896pt" viewBox="0 0 882 896" version="1.1" xmlns="http://www.w3.org/2000/svg">
<g id="#060607ff">
<path fill="#060607" opacity="1.00" d=" M 358.30 11.87 C 359.24 5.55 366.06 1.75 372.07 2.31 C 538.08 22.32 704.11 42.33 870.13 62.30 C 873.48 62.81 876.78 64.43 878.74 67.29 C 881.02 70.35 881.23 74.35 880.92 78.02 C 854.06 300.39 827.30 522.78 800.52 745.16 C 800.09 748.17 800.06 751.27 799.22 754.22 C 797.49 759.45 792.06 763.41 786.47 762.77 C 755.30 759.52 724.27 755.12 693.13 751.61 C 683.10 750.61 673.08 749.17 663.01 748.75 C 632.93 759.26 603.07 770.46 573.08 781.28 C 472.99 817.75 372.96 854.40 272.87 890.85 C 268.39 892.48 263.87 894.47 259.00 894.37 C 251.92 894.35 244.80 891.17 240.42 885.54 C 237.09 881.29 235.59 876.01 233.76 871.03 C 156.97 660.61 80.13 450.21 3.31 239.81 C -0.95 228.27 5.28 214.01 16.95 209.81 C 127.56 169.43 238.15 129.01 348.78 88.69 C 352.21 63.12 354.68 37.42 358.30 11.87 M 40.10 238.59 C 115.23 444.41 190.52 650.16 265.46 856.04 C 292.74 846.61 319.76 836.38 346.93 826.60 C 389.00 811.26 431.05 795.87 473.11 780.51 C 511.09 766.54 549.23 752.94 587.16 738.85 C 487.42 726.45 387.59 714.75 287.82 702.62 C 280.66 702.06 275.59 694.95 276.84 687.98 C 299.40 501.16 321.83 314.32 344.42 127.51 C 242.98 164.54 141.54 201.58 40.10 238.59 M 548.09 181.89 C 525.46 186.35 503.41 196.43 487.27 213.21 C 470.23 230.42 461.05 253.90 457.46 277.53 C 449.31 284.16 447.43 297.01 452.70 305.95 C 451.91 309.62 447.60 309.11 445.45 311.48 C 442.18 314.85 440.71 319.44 438.60 323.54 C 433.48 326.08 428.21 329.26 425.58 334.56 C 423.55 338.95 422.93 343.80 421.67 348.43 C 420.43 353.00 422.01 357.54 423.35 361.86 C 421.25 367.97 419.67 374.74 422.26 380.97 C 416.71 387.48 411.16 393.99 406.17 400.95 C 397.66 412.75 390.49 426.30 389.76 441.11 C 388.87 454.67 394.23 467.92 402.44 478.50 C 412.64 491.59 421.93 505.37 430.42 519.63 C 435.24 527.28 439.52 535.50 446.16 541.79 C 450.46 545.97 456.26 548.05 461.94 549.61 C 473.76 552.71 486.19 553.90 498.32 552.13 C 508.00 550.72 517.50 546.59 524.12 539.21 C 531.84 544.48 540.70 547.90 549.86 549.67 C 565.62 552.68 582.46 553.92 597.76 548.11 C 603.15 558.24 613.29 564.90 623.99 568.38 C 636.54 572.42 650.01 573.99 663.13 572.37 C 672.29 571.32 679.48 564.94 685.86 558.82 C 696.59 548.23 707.14 537.44 718.66 527.70 C 726.47 520.81 735.45 515.06 741.66 506.54 C 748.92 497.31 752.34 485.61 753.15 474.03 C 753.35 469.25 751.75 464.72 750.92 460.08 C 747.85 445.59 741.11 432.27 734.57 419.10 C 738.91 413.70 739.04 406.52 738.41 399.95 C 740.07 396.74 742.47 393.75 742.95 390.04 C 743.48 385.40 743.24 380.72 743.16 376.06 C 743.02 369.80 739.05 364.44 734.42 360.57 C 731.60 358.62 732.13 354.81 731.21 351.88 C 730.46 347.37 727.96 342.92 723.38 341.45 C 723.19 340.73 722.82 339.29 722.64 338.58 C 729.74 331.05 731.04 318.37 724.87 309.89 C 724.79 303.96 725.60 298.00 725.24 292.05 C 724.77 269.37 717.58 246.56 703.25 228.80 C 685.28 206.20 658.46 192.37 630.97 185.03 C 604.05 177.88 575.47 176.51 548.09 181.89 Z" />
<path fill="#060607" opacity="1.00" d=" M 545.50 186.28 C 571.23 180.61 598.21 181.33 623.86 187.12 C 641.12 191.14 657.96 197.52 672.99 206.99 C 687.91 216.38 700.89 229.18 709.33 244.75 C 720.43 264.85 723.08 288.54 720.81 311.12 C 727.43 318.23 726.14 330.99 718.55 336.90 C 719.07 339.60 719.67 342.29 720.21 344.99 C 722.38 345.32 724.93 345.72 725.93 348.00 C 727.91 352.11 728.30 356.76 729.14 361.20 C 733.84 364.60 738.57 369.06 739.33 375.13 C 739.64 379.08 739.50 383.05 739.49 387.01 C 739.53 391.35 737.14 395.20 734.38 398.37 C 735.31 405.15 735.86 413.44 729.87 418.18 C 734.94 428.31 740.18 438.41 743.90 449.14 C 746.44 456.25 747.96 463.69 749.27 471.11 C 749.04 480.76 747.17 490.65 742.17 499.04 C 738.09 506.07 732.26 511.93 725.85 516.87 C 712.16 527.74 699.44 539.78 687.19 552.24 C 681.25 557.97 675.42 564.37 667.56 567.44 C 660.62 569.76 653.16 569.24 645.97 568.93 C 634.27 567.87 622.30 565.19 612.40 558.59 C 606.80 554.90 602.34 549.60 599.78 543.39 C 591.87 546.42 583.53 548.47 575.02 548.47 C 556.98 548.26 538.06 545.19 523.25 534.16 C 516.60 543.51 505.16 547.91 494.08 548.86 C 481.31 549.77 468.24 548.32 456.24 543.75 C 448.63 540.93 443.88 533.94 439.66 527.42 C 431.50 514.32 423.72 500.95 414.59 488.47 C 408.81 480.11 401.60 472.61 397.62 463.12 C 392.39 451.73 392.25 438.38 396.45 426.64 C 402.59 409.20 415.17 395.19 426.92 381.31 C 422.83 375.35 425.11 367.98 427.45 361.84 C 426.60 358.24 424.33 354.83 425.06 350.96 C 425.94 346.39 427.00 341.83 428.43 337.40 C 430.55 331.71 436.32 328.98 441.35 326.39 C 443.79 322.37 444.84 317.48 448.21 314.04 C 449.60 312.60 451.75 312.86 453.57 312.60 C 454.70 310.17 455.89 307.78 457.00 305.35 C 451.07 297.82 452.76 285.07 460.95 279.81 C 464.12 257.06 472.51 234.42 488.40 217.44 C 503.41 201.18 524.07 191.01 545.50 186.28 M 549.07 191.84 C 528.72 196.07 508.83 205.10 494.29 220.25 C 478.05 236.85 469.52 259.67 466.94 282.45 C 502.33 286.57 537.69 290.97 573.07 295.19 C 620.18 300.96 667.35 306.39 714.44 312.38 C 716.75 292.74 715.16 272.21 707.01 254.00 C 699.85 237.71 687.42 224.10 672.73 214.23 C 657.70 204.20 640.68 197.34 623.11 193.26 C 598.88 187.73 573.46 186.72 549.07 191.84 M 464.14 304.95 C 463.27 307.27 461.21 309.26 461.16 311.81 C 462.86 311.09 463.60 309.04 464.98 307.86 C 460.80 313.81 459.32 321.40 461.53 328.42 C 461.03 328.25 460.04 327.91 459.54 327.74 L 460.79 328.42 C 459.26 333.77 459.54 339.39 459.06 344.88 C 459.15 352.07 458.12 359.58 460.96 366.41 C 462.05 362.27 462.59 357.92 464.47 354.02 C 463.95 357.51 463.09 360.94 462.68 364.45 C 462.58 365.08 462.99 367.72 463.92 366.44 C 464.35 362.23 465.53 358.12 465.93 353.92 C 464.11 346.60 462.15 339.29 460.96 331.83 C 460.44 330.49 461.37 329.32 461.86 328.16 C 463.13 338.88 466.41 349.28 469.65 359.54 C 472.35 367.25 475.33 375.07 480.40 381.57 C 482.57 384.22 485.36 386.94 488.98 387.16 C 495.08 387.32 501.07 385.86 507.00 384.57 C 523.81 380.59 540.18 374.90 556.16 368.38 C 547.15 373.50 537.27 376.91 527.53 380.36 C 515.60 384.32 503.45 388.21 490.86 389.16 C 486.03 389.72 481.80 386.61 478.96 383.02 C 473.28 375.86 470.38 367.06 467.27 358.60 C 464.57 371.62 464.11 386.17 470.94 398.06 C 473.26 396.50 475.57 394.83 478.21 393.82 C 473.34 397.34 468.16 400.73 464.72 405.79 C 461.09 410.22 459.76 416.56 462.03 421.92 C 465.35 430.41 468.99 439.04 475.05 446.00 C 478.55 449.99 483.45 453.34 488.97 453.16 C 494.35 453.16 499.22 450.41 503.45 447.33 C 509.86 442.63 516.58 438.32 523.73 434.81 C 537.14 427.69 551.74 422.18 566.99 421.07 C 582.14 420.05 596.32 427.23 608.55 435.44 C 618.74 442.69 628.73 450.43 636.91 459.95 C 641.12 464.73 645.16 470.23 651.38 472.49 C 656.37 474.55 662.02 473.09 666.47 470.39 C 674.59 465.38 680.40 457.59 685.91 449.98 C 688.67 446.35 690.26 441.62 689.17 437.08 C 687.52 429.24 682.12 423.07 676.99 417.23 C 679.46 419.13 681.53 421.47 683.63 423.76 C 693.06 413.64 696.05 399.39 696.62 385.98 C 691.92 393.26 687.16 400.73 680.41 406.31 C 676.78 409.37 671.87 412.06 667.02 410.55 C 659.37 408.25 652.26 404.53 645.33 400.63 C 632.30 393.02 619.39 384.93 608.08 374.89 C 624.78 386.62 641.94 398.00 660.71 406.22 C 664.58 407.65 668.81 410.04 673.01 408.44 C 678.98 406.12 683.35 401.09 687.26 396.21 C 694.54 386.77 700.34 376.30 705.75 365.70 C 706.34 364.09 707.87 362.60 707.35 360.77 C 708.03 361.05 708.73 361.35 709.42 361.68 C 706.12 367.44 703.69 373.65 700.30 379.37 C 698.26 382.46 697.87 386.61 699.07 390.07 C 699.30 390.00 699.76 389.86 699.99 389.79 C 700.09 387.15 700.12 384.50 700.46 381.88 C 701.10 386.21 701.20 390.65 700.51 394.98 C 700.23 394.90 699.69 394.73 699.42 394.65 C 699.30 394.00 699.06 392.69 698.94 392.03 C 698.74 392.07 698.34 392.16 698.15 392.20 C 697.05 404.17 693.45 416.59 684.79 425.34 C 685.78 426.53 686.41 428.35 688.08 428.77 C 692.55 430.13 697.12 431.14 701.61 432.47 C 696.16 420.66 701.83 407.64 700.60 395.29 C 702.18 393.55 703.01 391.31 704.23 389.34 C 704.59 389.37 705.31 389.43 705.67 389.46 C 704.66 391.98 702.91 394.21 702.20 396.84 C 701.71 401.16 702.05 405.86 704.35 409.65 C 706.22 412.64 709.99 412.97 713.19 412.89 C 710.43 412.12 707.55 410.45 707.83 407.09 C 707.26 408.25 706.74 409.43 706.25 410.63 C 703.93 406.89 703.41 402.41 703.59 398.09 C 705.13 394.47 706.89 390.90 707.78 387.03 C 708.71 385.59 707.69 384.18 707.20 382.86 C 706.85 384.45 706.15 387.63 705.80 389.23 C 705.19 388.02 704.73 386.65 705.21 385.32 C 706.67 379.34 708.51 373.34 708.80 367.17 C 709.29 366.92 710.27 366.42 710.76 366.17 C 710.40 368.41 709.98 370.65 709.50 372.87 C 709.97 373.46 710.45 374.05 710.95 374.64 C 711.80 367.58 713.43 360.64 714.64 353.64 C 715.97 353.26 717.31 352.89 718.66 352.54 C 714.51 368.49 710.97 384.68 705.31 400.19 C 704.91 402.64 705.66 405.09 705.99 407.51 C 706.27 407.15 706.83 406.42 707.11 406.06 C 707.16 405.57 707.26 404.61 707.31 404.13 L 707.90 405.95 C 708.44 405.23 708.99 404.51 709.54 403.80 C 709.65 403.07 709.89 401.61 710.00 400.89 C 711.68 405.68 717.12 408.03 721.90 407.35 C 725.63 406.70 725.70 402.40 726.27 399.50 C 728.68 400.11 728.25 402.99 728.21 404.92 C 727.74 407.68 728.01 411.55 725.04 412.97 C 721.36 414.23 717.41 413.08 713.63 413.24 C 717.95 414.09 723.18 415.83 727.20 413.24 C 731.16 409.00 729.18 402.58 728.82 397.41 C 727.59 398.23 726.37 399.05 725.16 399.89 C 725.09 401.15 724.97 402.40 724.80 403.65 C 723.91 406.65 718.23 406.30 718.15 402.99 C 717.99 388.96 718.02 374.92 718.11 360.89 C 718.09 358.19 721.35 358.24 723.27 358.16 C 722.76 355.59 722.12 353.04 721.43 350.52 C 718.73 351.01 715.92 351.27 713.43 352.52 C 712.28 354.99 712.21 357.80 712.00 360.47 C 711.26 359.16 708.47 360.34 709.14 358.40 C 710.55 355.39 712.26 352.35 712.29 348.93 C 712.34 345.69 712.29 342.45 712.75 339.24 C 712.40 339.32 711.70 339.48 711.36 339.57 C 710.90 338.74 710.43 337.93 709.94 337.14 C 710.42 337.34 711.39 337.75 711.88 337.96 C 711.91 337.19 711.96 335.64 711.98 334.87 C 681.13 331.35 650.31 327.45 619.47 323.80 C 567.70 317.47 515.89 311.44 464.14 304.95 M 460.24 312.17 C 459.54 314.47 458.35 316.57 457.46 318.78 C 457.92 319.22 458.84 320.09 459.31 320.52 C 459.81 318.40 460.23 316.23 461.15 314.24 C 460.85 313.54 460.55 312.85 460.24 312.17 M 451.49 318.00 C 450.24 320.32 449.06 322.67 447.93 325.05 C 449.14 325.43 450.49 325.57 451.58 326.29 C 452.98 327.63 452.11 329.54 451.81 331.13 C 448.60 343.90 445.57 356.73 442.31 369.49 C 441.65 372.77 436.14 372.07 435.69 368.98 C 435.86 367.75 436.11 366.54 436.42 365.34 C 435.38 364.14 434.34 362.93 433.28 361.77 C 431.61 366.73 428.10 372.66 431.19 377.71 C 435.59 381.63 442.22 380.46 447.66 380.59 C 447.99 381.11 448.65 382.13 448.98 382.65 C 444.31 382.13 439.60 382.08 434.94 381.44 C 423.76 394.83 411.33 407.72 404.15 423.85 C 409.38 418.21 415.07 412.73 422.10 409.39 C 428.40 406.26 435.36 404.97 442.12 403.21 C 445.75 402.37 448.72 399.82 450.81 396.82 C 454.80 390.93 457.09 383.96 458.16 376.97 C 456.02 380.10 453.04 382.52 449.22 383.21 C 449.79 382.54 450.37 381.87 450.96 381.20 C 456.75 379.13 458.67 372.33 459.18 366.81 C 456.06 354.55 458.06 341.84 458.60 329.41 C 458.12 328.51 457.58 327.64 457.00 326.80 C 456.95 340.51 454.60 354.41 457.53 367.97 C 456.73 372.47 455.41 377.70 451.07 380.09 C 452.66 376.81 455.09 373.75 455.47 370.00 C 453.47 353.62 454.15 337.05 453.81 320.58 C 455.02 321.25 456.22 321.92 457.43 322.61 C 457.10 324.67 457.50 326.60 459.00 328.13 C 458.99 326.03 459.01 323.93 459.05 321.84 C 456.72 320.21 454.16 318.96 451.49 318.00 M 446.56 329.51 L 448.37 328.43 C 446.36 341.81 443.22 355.02 438.74 367.78 C 438.23 367.64 437.22 367.34 436.72 367.20 C 436.69 369.61 438.62 370.32 440.66 370.20 C 444.25 356.06 447.61 341.85 451.18 327.70 C 449.45 326.63 446.10 325.91 446.56 329.51 M 712.95 351.11 C 713.49 350.87 714.55 350.39 715.09 350.16 C 714.83 348.93 714.59 347.72 714.37 346.50 L 713.54 346.66 C 713.58 345.64 713.65 343.61 713.68 342.60 C 712.06 345.13 712.98 348.29 712.95 351.11 M 719.65 359.80 C 719.31 372.55 719.62 385.30 719.49 398.05 C 719.54 400.00 719.28 402.03 719.92 403.93 C 720.71 404.00 722.29 404.13 723.09 404.20 C 723.34 403.18 723.60 402.18 723.87 401.18 C 723.42 401.37 722.53 401.75 722.08 401.94 C 720.73 388.44 720.61 374.76 722.24 361.27 C 722.67 361.75 723.54 362.71 723.98 363.19 C 723.93 360.59 722.33 358.92 719.65 359.80 M 458.51 376.34 C 458.59 381.97 457.29 387.49 456.05 392.95 C 455.31 396.41 453.53 399.50 451.35 402.25 C 455.94 402.01 460.53 402.06 465.12 401.96 C 466.90 402.08 467.99 400.37 469.38 399.56 C 464.03 390.43 462.82 379.60 463.64 369.22 C 463.09 368.51 462.55 367.80 462.01 367.10 C 461.97 372.74 461.18 378.40 461.98 384.03 C 462.25 389.01 464.16 393.65 465.98 398.22 C 458.94 389.29 460.20 377.22 460.69 366.59 C 460.10 369.87 459.71 373.20 458.51 376.34 M 708.74 374.82 C 709.05 377.17 708.12 379.45 707.58 381.69 C 708.01 382.43 708.45 383.17 708.91 383.91 C 709.18 380.72 710.02 377.62 710.73 374.52 C 710.23 374.59 709.24 374.74 708.74 374.82 M 430.98 407.45 C 423.53 410.12 416.75 414.65 411.20 420.25 C 407.51 425.41 403.79 430.59 400.49 436.00 C 398.39 443.93 399.99 452.44 403.00 459.94 C 406.55 468.77 413.16 475.78 418.61 483.44 C 424.33 491.42 429.82 499.57 434.93 507.95 C 433.75 501.50 430.09 495.97 426.26 490.80 C 418.91 480.34 411.07 470.15 404.96 458.89 C 399.78 449.83 399.72 436.90 407.32 429.15 C 405.20 433.39 404.58 438.04 404.81 442.75 C 405.27 442.99 406.19 443.47 406.64 443.71 L 406.88 440.87 C 409.06 446.53 407.90 452.82 409.48 458.59 C 415.85 470.26 423.59 481.12 430.95 492.18 C 430.86 487.72 430.38 482.91 432.78 478.92 C 436.14 472.84 442.84 469.83 449.02 467.44 C 459.67 463.33 472.22 461.90 480.28 453.02 C 471.46 447.35 466.62 437.61 462.76 428.21 C 461.16 423.95 458.95 419.58 459.56 414.89 C 459.87 411.70 461.28 408.77 462.87 406.04 C 457.62 405.25 452.29 405.54 447.00 405.51 C 441.62 405.62 436.10 405.57 430.98 407.45 M 709.37 406.97 C 709.69 407.25 709.69 407.25 709.37 406.97 M 701.03 406.60 C 700.51 415.74 700.86 426.36 707.39 433.49 C 713.07 437.74 720.01 439.98 725.68 444.28 C 732.34 448.79 736.93 455.53 741.11 462.25 C 737.89 445.74 729.14 431.08 721.90 416.11 C 717.22 415.41 712.56 414.65 707.91 413.83 C 704.25 413.19 702.55 409.53 701.03 406.60 M 557.90 424.07 C 558.69 424.64 559.51 425.16 560.37 425.64 C 565.28 425.81 570.20 425.92 575.08 426.55 C 571.53 426.80 567.97 426.49 564.41 426.46 C 562.91 438.77 561.36 451.07 559.99 463.40 C 563.43 463.22 566.88 463.17 570.32 463.35 L 570.38 465.37 C 547.52 465.01 524.78 468.12 501.96 468.81 C 498.81 468.81 495.98 467.16 493.53 465.36 C 489.20 462.11 485.62 458.02 482.18 453.88 C 474.63 462.85 462.49 464.85 451.98 468.52 C 445.75 470.80 438.90 473.32 435.04 479.07 C 431.73 483.90 432.77 490.12 433.69 495.53 C 435.81 504.52 438.83 513.39 443.25 521.52 C 446.73 526.95 450.06 532.89 455.57 536.53 C 459.96 539.09 465.00 540.24 469.94 541.28 C 481.53 543.42 493.83 544.11 505.13 540.14 C 512.02 537.91 517.71 532.68 520.67 526.09 C 524.61 527.67 528.19 529.94 531.73 532.25 C 539.27 537.12 548.09 539.53 556.88 540.87 C 565.90 542.24 575.15 542.90 584.21 541.49 C 591.09 540.47 597.33 537.01 604.26 536.20 C 605.59 544.51 611.39 551.44 618.76 555.23 C 631.36 561.86 646.05 563.72 660.11 562.79 C 669.86 562.09 676.14 553.82 683.03 547.96 C 687.20 543.25 690.56 537.87 693.79 532.48 C 696.82 527.07 699.84 521.25 700.00 514.92 C 699.53 507.43 693.34 502.20 687.61 498.24 C 677.71 491.32 665.06 486.67 659.35 475.24 C 652.78 479.89 645.56 485.84 637.06 485.14 C 614.91 479.01 593.36 470.77 571.04 465.25 L 570.46 463.35 C 574.25 463.94 577.95 464.99 581.66 465.95 C 583.06 453.65 584.60 441.37 586.10 429.08 C 582.69 428.22 579.13 427.91 575.88 426.54 C 581.46 427.41 587.05 428.38 592.50 429.92 C 592.61 430.12 592.83 430.50 592.94 430.69 L 592.78 431.33 C 591.02 443.44 589.88 455.65 588.22 467.78 C 591.32 468.95 594.51 469.90 597.74 470.72 C 599.07 458.75 600.51 446.78 602.05 434.83 C 600.27 434.04 598.46 433.19 596.51 432.93 C 597.30 432.27 598.09 431.62 598.86 430.94 C 598.17 431.35 596.79 432.16 596.10 432.57 L 596.40 430.40 C 588.49 426.42 579.94 423.09 570.96 422.99 C 566.58 422.84 562.25 423.65 557.90 424.07 M 557.57 423.76 C 555.74 425.07 553.21 424.89 551.62 426.59 C 550.38 426.50 549.16 426.41 547.95 426.28 C 549.12 426.47 550.19 426.91 551.13 427.61 C 550.25 427.76 548.50 428.05 547.63 428.19 C 546.04 440.18 544.68 452.19 543.24 464.20 C 546.47 464.04 549.72 463.94 552.95 463.68 C 554.64 451.49 555.87 439.23 557.48 427.03 C 555.97 427.23 554.52 427.12 553.12 426.69 L 552.94 426.27 C 554.03 426.24 556.21 426.17 557.30 426.14 C 557.41 425.34 557.54 424.55 557.57 423.76 M 530.44 433.60 C 529.08 444.20 527.90 454.82 526.57 465.43 C 529.81 465.10 533.07 464.98 536.32 464.71 C 537.64 453.12 539.05 441.55 540.51 429.98 C 537.11 431.06 533.76 432.27 530.44 433.60 M 689.54 433.24 C 691.30 438.76 691.36 445.21 687.73 450.03 C 680.96 460.02 673.22 470.71 661.36 474.89 C 669.98 490.11 690.29 492.59 699.62 507.13 C 703.16 512.48 701.96 519.10 699.98 524.78 C 709.60 515.76 719.66 507.17 728.62 497.47 C 731.81 492.13 732.14 485.47 735.73 480.27 C 735.23 482.30 734.22 486.36 733.71 488.39 C 737.81 482.86 739.76 475.63 737.80 468.89 C 742.12 475.23 741.25 483.66 738.50 490.46 C 736.68 495.25 732.91 498.85 729.41 502.45 C 722.66 509.34 715.24 515.52 707.93 521.80 C 702.66 526.47 696.79 530.77 693.33 537.07 C 699.77 531.60 705.67 525.50 712.20 520.12 C 719.05 513.98 726.98 508.97 732.81 501.75 C 737.68 495.83 741.05 488.64 742.21 481.05 C 742.54 478.67 742.91 476.15 741.88 473.89 C 739.90 468.96 738.31 463.86 736.11 459.03 C 730.31 450.15 722.45 441.73 712.00 438.59 C 704.58 436.55 697.16 434.44 689.54 433.24 M 511.39 444.30 C 510.26 451.69 509.54 459.16 508.61 466.59 C 512.30 466.36 515.99 466.03 519.69 465.88 C 520.74 456.29 522.00 446.73 523.08 437.15 C 519.10 439.38 515.02 441.51 511.39 444.30 M 608.51 438.24 C 607.02 449.79 605.66 461.37 604.30 472.94 C 607.37 473.91 610.45 474.89 613.54 475.86 C 614.65 466.91 615.67 457.94 616.81 448.99 C 616.82 447.44 617.50 445.76 616.87 444.29 C 614.38 441.89 611.41 440.07 608.51 438.24 M 404.32 443.75 C 406.74 444.83 405.73 448.16 406.49 450.28 C 406.82 448.12 407.03 445.93 407.42 443.79 C 406.38 443.79 405.35 443.77 404.32 443.75 M 620.17 477.99 C 623.68 479.13 627.21 480.24 630.76 481.31 C 631.60 473.85 632.52 466.40 633.41 458.96 C 630.28 455.58 627.02 452.33 623.62 449.23 C 622.51 458.82 621.30 468.40 620.17 477.99 M 485.76 455.07 C 490.22 459.91 494.83 465.33 501.47 467.06 C 502.29 461.34 502.91 455.60 503.63 449.87 C 498.33 453.30 492.21 455.86 485.76 455.07 M 639.40 466.07 C 638.78 471.89 637.94 477.69 637.42 483.53 C 644.21 483.28 650.08 479.41 655.41 475.57 C 649.00 474.71 643.62 470.76 639.40 466.07 Z" />
<path fill="#060607" opacity="1.00" d=" M 668.09 217.31 C 681.26 224.40 691.92 235.74 699.40 248.61 C 708.73 264.61 712.00 283.58 710.78 301.92 C 698.55 300.60 686.37 298.73 674.12 297.71 C 675.63 296.93 677.08 296.05 678.46 295.05 C 687.14 295.86 696.33 295.84 704.48 292.37 C 705.26 276.70 702.86 260.57 695.50 246.58 C 690.50 237.02 683.33 228.55 674.53 222.29 C 672.33 220.70 669.76 219.53 668.09 217.31 Z" />
<path fill="#060607" opacity="1.00" d=" M 502.62 281.88 C 513.00 282.75 523.31 284.34 533.68 285.44 C 532.19 285.82 530.71 286.17 529.22 286.48 C 527.89 284.82 525.74 285.99 523.99 285.79 C 518.28 285.24 512.60 284.40 506.90 283.81 C 505.31 283.55 503.35 283.68 502.62 281.88 Z" />
<path fill="#060607" opacity="1.00" d=" M 535.90 285.78 C 540.12 286.18 544.31 286.82 548.54 287.19 C 547.75 288.01 546.97 288.83 546.19 289.64 C 542.65 288.84 539.11 288.06 535.56 287.30 L 535.90 285.78 Z" />
<path fill="#060607" opacity="1.00" d=" M 474.70 315.79 C 475.69 312.30 479.24 309.36 483.00 310.05 C 486.77 310.47 490.56 310.84 494.27 311.69 C 489.58 312.26 484.84 310.83 480.19 311.66 C 474.25 314.35 475.11 321.87 474.52 327.24 C 473.73 323.49 473.56 319.48 474.70 315.79 Z" />
<path fill="#060607" opacity="1.00" d=" M 480.44 314.56 C 481.81 313.64 483.55 314.34 485.08 314.33 C 507.11 316.47 529.21 318.61 550.90 323.13 C 556.22 324.45 561.89 325.44 566.50 328.59 C 568.42 329.77 567.89 332.17 566.46 333.50 C 562.23 338.12 556.61 341.10 551.26 344.19 C 539.26 350.74 526.71 356.25 513.85 360.83 C 508.33 362.64 502.74 364.61 496.91 365.02 C 494.16 365.34 492.38 362.89 490.78 361.09 C 485.29 354.13 482.07 345.69 479.79 337.22 C 478.45 331.97 477.50 326.54 477.81 321.11 C 478.03 318.79 478.34 315.99 480.44 314.56 Z" />
<path fill="#060607" opacity="1.00" d=" M 552.94 320.29 C 558.77 320.43 564.84 322.12 569.48 325.73 C 572.12 327.83 571.98 331.47 570.64 334.26 C 570.50 331.83 571.20 328.78 568.93 327.09 C 564.38 323.30 558.35 322.30 552.94 320.29 Z" />
<path fill="#060607" opacity="1.00" d=" M 605.00 330.06 C 610.31 327.49 616.54 327.69 622.27 328.40 C 616.54 329.63 610.25 328.75 604.94 331.65 C 602.57 332.90 602.53 335.80 602.10 338.10 C 601.06 335.12 601.99 331.49 605.00 330.06 Z" />
<path fill="#060607" opacity="1.00" d=" M 609.51 332.76 C 619.55 331.15 629.83 332.14 639.93 332.89 C 657.38 334.37 674.74 336.78 692.06 339.36 C 696.07 339.91 695.82 345.05 695.09 348.03 C 692.84 357.58 687.84 366.28 681.96 374.04 C 678.37 378.55 674.34 383.07 668.99 385.47 C 664.31 385.94 660.31 382.77 656.34 380.78 C 641.46 371.79 627.60 361.08 615.01 349.10 C 611.51 345.42 607.50 341.85 605.65 337.02 C 604.49 334.47 607.51 333.10 609.51 332.76 Z" />
<path fill="#060607" opacity="1.00" d=" M 681.75 334.28 C 685.57 334.40 689.38 334.86 693.16 335.43 C 696.29 335.78 698.73 338.51 699.28 341.53 C 700.15 345.85 698.67 350.15 697.23 354.18 C 697.42 348.73 700.35 341.59 695.12 337.61 C 690.92 335.67 686.04 336.01 681.75 334.28 Z" />
<path fill="#060607" opacity="1.00" d=" M 481.37 353.57 C 478.87 347.95 476.36 342.05 476.29 335.81 C 478.82 345.31 482.53 354.70 488.54 362.56 C 490.52 364.93 492.72 367.80 496.12 367.88 C 500.24 367.95 504.20 366.64 508.28 366.29 C 503.35 367.82 497.83 370.18 492.71 368.27 C 487.31 364.94 484.17 359.06 481.37 353.57 Z" />
<path fill="#060607" opacity="1.00" d=" M 522.91 360.87 C 537.93 354.08 552.92 347.08 566.80 338.15 C 559.30 345.05 550.04 349.60 540.95 354.03 C 535.08 356.63 529.25 359.59 522.91 360.87 Z" />
<path fill="#060607" opacity="1.00" d=" M 604.97 343.03 C 611.13 349.19 617.33 355.32 624.10 360.83 C 629.97 365.91 636.30 370.43 642.04 375.67 C 633.93 370.80 626.50 364.89 619.39 358.69 C 614.16 353.89 608.77 349.08 604.97 343.03 Z" />
<path fill="#060607" opacity="1.00" d=" M 710.34 361.32 C 711.90 361.38 711.46 366.30 709.85 365.69 C 709.63 364.18 709.79 362.72 710.34 361.32 Z" />
<path fill="#060607" opacity="1.00" d=" M 671.48 387.38 C 681.43 381.38 687.50 371.14 693.82 361.76 C 689.92 370.84 684.13 379.25 676.54 385.62 C 673.55 387.85 670.02 390.65 666.04 389.49 C 662.31 388.44 658.74 386.71 655.70 384.31 C 660.73 385.89 666.16 390.52 671.48 387.38 Z" />
<path fill="#060607" opacity="1.00" d=" M 431.97 369.92 C 432.38 367.77 432.46 364.56 435.25 364.23 C 435.25 367.10 434.05 371.10 437.21 372.81 C 441.88 375.16 448.29 373.77 450.97 369.09 C 450.64 372.34 449.72 375.48 448.05 378.30 C 450.06 376.89 451.04 374.63 452.13 372.53 C 451.92 375.19 451.37 378.39 448.73 379.75 C 443.84 380.73 438.57 380.25 434.00 378.26 C 430.80 376.77 431.62 372.73 431.97 369.92 Z" />
<path fill="#060607" opacity="1.00" d=" M 467.92 365.64 C 470.74 371.97 473.67 378.29 477.67 383.99 C 477.00 386.79 476.63 389.67 476.61 392.56 C 475.26 393.57 473.93 394.62 472.62 395.68 C 466.67 386.98 467.18 375.69 467.92 365.64 Z" />
<path fill="#060607" opacity="1.00" d=" M 680.38 408.38 C 685.82 403.63 690.55 398.09 694.54 392.07 C 692.49 402.27 690.57 413.61 682.61 421.07 C 681.54 419.72 680.47 418.38 679.39 417.05 C 679.97 414.20 680.33 411.30 680.38 408.38 Z" />
<path fill="#060607" opacity="1.00" d=" M 699.33 395.87 C 699.57 396.00 700.04 396.26 700.28 396.38 C 699.64 406.84 696.63 418.40 688.12 425.27 C 695.15 417.07 698.05 406.39 699.33 395.87 Z" />
<path fill="#060607" opacity="1.00" d=" M 440.40 408.84 C 444.82 407.09 450.67 405.81 454.74 408.95 C 453.30 410.54 451.35 411.44 449.59 412.58 C 449.14 414.40 449.42 416.31 449.77 418.14 C 452.08 428.53 456.81 438.14 460.38 448.11 C 457.07 444.03 454.74 439.27 452.25 434.67 C 447.84 426.28 443.73 417.72 440.40 408.84 Z" />
<path fill="#060607" opacity="1.00" d=" M 417.20 426.21 C 421.33 421.74 425.34 416.67 431.05 414.18 C 432.47 413.67 435.69 413.49 435.72 415.58 C 433.53 417.48 430.72 418.53 428.66 420.61 C 423.69 425.33 418.96 430.29 414.16 435.18 C 413.12 436.57 411.31 436.57 409.77 436.84 C 411.12 432.63 414.58 429.63 417.20 426.21 Z" />
<path fill="#060607" opacity="1.00" d=" M 434.37 423.54 C 436.46 422.19 438.96 422.53 441.00 423.79 C 438.50 426.12 435.21 427.38 432.83 429.85 C 428.10 434.45 423.51 439.19 418.90 443.91 C 417.84 445.27 416.07 445.45 414.49 445.65 C 415.40 442.51 417.71 440.15 419.69 437.67 C 424.01 432.44 428.51 427.11 434.37 423.54 Z" />
<path fill="#060607" opacity="1.00" d=" M 594.50 431.07 C 596.23 429.12 596.13 433.63 594.39 431.76 L 594.50 431.07 Z" />
<path fill="#060607" opacity="1.00" d=" M 438.53 432.62 C 440.60 431.11 443.26 431.26 445.55 432.17 C 443.92 434.78 440.79 435.64 438.63 437.68 C 433.41 442.48 428.59 447.69 423.60 452.73 C 422.53 454.13 420.74 454.13 419.15 454.24 C 419.93 452.39 420.91 450.63 422.23 449.12 C 427.12 443.14 432.01 436.90 438.53 432.62 Z" />
<path fill="#060607" opacity="1.00" d=" M 696.79 438.28 C 701.32 435.99 706.82 438.74 710.64 441.44 C 705.31 449.38 699.17 456.74 692.86 463.91 C 689.32 467.76 685.94 471.81 681.83 475.09 C 688.33 464.47 697.65 455.18 701.16 442.97 C 699.52 441.57 697.79 440.22 696.79 438.28 Z" />
<path fill="#060607" opacity="1.00" d=" M 444.53 440.75 C 446.35 439.68 448.35 440.29 450.19 440.97 C 448.65 443.58 445.54 444.38 443.41 446.36 C 438.00 451.39 432.99 456.83 427.74 462.01 C 426.74 463.15 425.10 462.86 423.77 462.95 C 425.52 459.21 428.38 456.18 430.95 453.01 C 434.98 448.45 439.05 443.60 444.53 440.75 Z" />
<path fill="#060607" opacity="1.00" d=" M 713.45 448.04 C 715.86 447.73 718.37 448.21 720.05 450.11 C 724.60 454.84 727.59 460.80 730.45 466.65 C 731.78 469.62 733.60 472.49 733.71 475.84 C 732.12 475.36 730.52 474.72 729.82 473.12 C 726.35 467.26 722.94 461.35 719.26 455.62 C 717.65 452.82 714.49 451.20 713.45 448.04 Z" />
<path fill="#060607" opacity="1.00" d=" M 447.46 450.48 C 449.66 448.82 452.71 448.38 455.05 450.06 C 452.94 452.36 449.87 453.40 447.66 455.59 C 442.69 460.30 437.95 465.25 433.17 470.15 C 432.10 471.53 430.32 471.69 428.75 471.99 C 429.18 470.21 430.03 468.58 431.24 467.22 C 436.13 461.18 441.02 454.93 447.46 450.48 Z" />
<path fill="#060607" opacity="1.00" d=" M 706.59 455.68 C 708.55 455.54 710.87 455.02 712.41 456.69 C 716.99 460.62 719.72 466.20 722.52 471.46 C 724.25 475.32 726.68 479.01 727.21 483.30 C 726.03 482.69 724.33 482.64 723.67 481.34 C 719.87 475.12 716.35 468.74 712.34 462.66 C 710.66 460.12 708.06 458.36 706.59 455.68 Z" />
<path fill="#060607" opacity="1.00" d=" M 700.06 462.95 C 705.75 461.58 709.00 467.37 711.66 471.33 C 715.12 477.48 719.02 483.69 720.51 490.66 C 719.14 490.07 717.39 489.84 716.74 488.32 C 713.10 482.26 709.60 476.10 705.76 470.17 C 704.13 467.53 701.26 465.88 700.06 462.95 Z" />
<path fill="#060607" opacity="1.00" d=" M 693.33 470.62 C 698.13 468.66 701.51 473.61 703.85 477.01 C 707.94 483.59 712.02 490.49 713.87 498.06 C 712.18 497.61 710.54 496.93 709.77 495.28 C 706.31 489.41 702.92 483.50 699.23 477.78 C 697.60 475.10 694.84 473.37 693.33 470.62 Z" />
<path fill="#060607" opacity="1.00" d=" M 507.84 471.47 C 525.90 470.27 544.01 471.70 562.05 472.49 C 549.71 473.61 537.33 472.65 524.97 472.34 C 519.27 471.84 513.52 472.20 507.84 471.47 Z" />
<path fill="#060607" opacity="1.00" d=" M 577.16 474.51 C 594.98 477.52 612.73 481.17 630.19 485.80 C 623.99 485.41 617.96 483.78 611.87 482.70 C 600.27 480.12 588.49 478.13 577.16 474.51 Z" />
<path fill="#060607" opacity="1.00" d=" M 686.56 478.07 C 688.72 477.17 691.15 477.49 692.82 479.20 C 697.23 483.34 699.99 488.86 702.77 494.16 C 704.46 497.81 706.54 501.38 707.25 505.40 C 705.97 504.90 704.32 504.82 703.64 503.45 C 699.78 497.27 696.30 490.85 692.28 484.77 C 690.63 482.31 688.13 480.59 686.56 478.07 Z" />
<path fill="#060607" opacity="1.00" d=" M 549.95 491.10 C 555.65 489.98 561.29 488.53 567.00 487.42 L 567.20 488.12 C 567.08 488.47 566.84 489.17 566.73 489.53 C 561.09 490.71 555.48 491.99 549.85 493.20 C 547.93 493.54 546.35 494.75 544.77 495.81 C 539.41 499.48 534.28 503.62 528.29 506.25 C 525.57 507.65 522.59 506.30 519.93 505.49 C 508.41 501.55 496.21 497.35 483.89 499.70 C 487.94 501.03 492.21 502.73 494.60 506.52 C 499.80 513.50 497.46 524.57 489.86 528.83 C 483.02 533.05 473.17 530.85 468.89 524.02 C 465.07 518.21 465.65 509.69 470.67 504.75 C 475.96 499.41 483.60 496.95 491.01 497.01 C 500.66 497.09 509.99 499.95 519.03 503.08 C 521.32 503.84 523.61 504.78 526.05 504.91 C 531.16 503.25 535.42 499.78 539.83 496.82 C 543.06 494.72 546.01 491.80 549.95 491.10 M 479.42 508.51 C 474.29 510.13 472.72 517.54 477.00 520.95 C 481.03 525.07 488.84 522.02 489.18 516.32 C 490.06 511.22 484.24 506.39 479.42 508.51 Z" />
<path fill="#060607" opacity="1.00" d=" M 568.13 488.83 C 568.20 488.49 568.33 487.82 568.40 487.48 C 574.58 490.14 580.54 493.34 586.56 496.36 C 592.69 501.60 596.94 508.78 603.43 513.66 C 605.29 515.11 607.82 514.46 610.00 514.45 C 622.65 513.28 636.23 512.10 648.02 517.82 C 654.67 521.36 661.10 527.91 660.52 536.00 C 660.27 544.33 652.41 551.39 644.09 550.61 C 635.01 550.41 627.67 540.97 629.80 532.12 C 631.10 524.08 639.28 518.81 647.15 519.49 C 635.84 514.29 623.03 515.19 610.98 516.36 C 607.98 516.44 604.49 517.26 602.00 515.09 C 595.99 510.42 591.65 504.06 586.32 498.70 C 580.66 494.76 573.57 493.07 568.13 488.83 M 644.71 527.77 C 639.27 527.73 635.55 534.64 638.80 539.07 C 641.37 543.66 648.57 543.58 651.22 539.11 C 654.67 534.48 650.37 527.26 644.71 527.77 Z" />
<path fill="#060607" opacity="1.00" d=" M 563.19 492.93 C 565.71 493.24 568.25 493.55 570.78 493.87 C 569.19 507.92 567.37 521.95 565.72 536.00 C 563.18 535.71 560.65 535.41 558.14 535.02 C 559.83 520.99 561.52 506.96 563.19 492.93 Z" />
<path fill="#060607" opacity="1.00" d=" M 556.52 495.35 C 558.02 495.49 559.52 495.65 561.04 495.83 C 559.38 508.29 558.12 520.80 556.39 533.25 C 554.91 532.92 553.46 532.61 552.00 532.28 C 553.61 519.98 554.92 507.65 556.52 495.35 Z" />
<path fill="#060607" opacity="1.00" d=" M 545.93 529.25 C 547.32 518.51 548.51 507.74 549.88 496.99 C 551.41 497.20 552.95 497.43 554.49 497.65 C 553.06 508.54 551.96 519.46 550.43 530.34 C 548.92 529.97 547.43 529.61 545.93 529.25 Z" />
<path fill="#060607" opacity="1.00" d=" M 568.39 534.62 C 569.83 522.19 571.39 509.77 572.86 497.34 C 574.36 497.47 575.86 497.61 577.37 497.77 C 575.87 510.17 574.43 522.57 572.84 534.96 C 571.34 534.84 569.86 534.73 568.39 534.62 Z" />
<path fill="#060607" opacity="1.00" d=" M 542.81 503.89 C 543.96 501.75 546.14 500.36 547.87 498.70 C 546.71 508.20 545.76 517.73 544.36 527.21 C 542.92 526.74 541.48 526.28 540.05 525.82 C 541.08 518.53 541.65 511.16 542.81 503.89 Z" />
<path fill="#060607" opacity="1.00" d=" M 574.87 533.32 C 576.11 522.38 577.52 511.46 578.77 500.53 C 580.25 500.71 581.75 500.90 583.25 501.08 C 582.02 511.84 580.70 522.59 579.36 533.33 C 577.86 533.32 576.36 533.32 574.87 533.32 Z" />
<path fill="#060607" opacity="1.00" d=" M 581.45 531.55 C 582.68 522.20 583.60 512.81 584.98 503.49 C 586.31 505.24 587.74 506.97 588.56 509.05 C 588.08 516.55 586.89 524.00 586.01 531.47 C 584.48 531.49 582.96 531.52 581.45 531.55 Z" />
<path fill="#060607" opacity="1.00" d=" M 534.98 510.18 C 536.64 508.22 538.73 506.71 540.67 505.05 C 540.04 511.04 539.27 517.02 538.54 523.00 C 536.89 522.37 535.22 521.77 533.70 520.89 C 532.88 517.37 533.95 513.59 534.98 510.18 Z" />
<path fill="#060607" opacity="1.00" d=" M 478.28 510.20 C 482.03 507.29 488.22 510.30 488.24 515.05 C 488.77 519.75 483.18 523.56 479.05 521.14 C 474.70 519.28 474.34 512.69 478.28 510.20 Z" />
<path fill="#060607" opacity="1.00" d=" M 590.35 511.06 C 591.90 513.22 593.82 515.21 594.82 517.71 C 594.98 521.17 594.60 524.66 593.78 528.03 C 591.94 528.42 590.09 528.75 588.26 529.09 C 588.85 523.07 589.71 517.08 590.35 511.06 Z" />
<path fill="#060607" opacity="1.00" d=" M 495.98 526.13 C 503.76 524.82 509.82 519.40 515.94 514.87 C 512.72 524.55 501.92 528.13 492.87 529.99 C 493.87 528.67 494.90 527.38 495.98 526.13 Z" />
<path fill="#060607" opacity="1.00" d=" M 612.12 526.65 C 617.13 532.38 621.63 539.15 628.92 542.22 C 629.58 543.67 630.20 545.11 630.85 546.59 C 622.57 542.69 613.02 536.69 612.12 526.65 Z" />
<path fill="#060607" opacity="1.00" d=" M 643.02 529.09 C 647.60 527.33 652.80 532.27 651.12 536.92 C 650.01 541.45 643.55 543.14 640.44 539.59 C 637.15 536.45 638.64 530.32 643.02 529.09 Z" />
</g>
<g id="#ffffffff">
<path fill="#ffffff" opacity="1.00" d=" M 40.10 238.59 C 141.54 201.58 242.98 164.54 344.42 127.51 C 321.83 314.32 299.40 501.16 276.84 687.98 C 275.59 694.95 280.66 702.06 287.82 702.62 C 387.59 714.75 487.42 726.45 587.16 738.85 C 549.23 752.94 511.09 766.54 473.11 780.51 C 431.05 795.87 389.00 811.26 346.93 826.60 C 319.76 836.38 292.74 846.61 265.46 856.04 C 190.52 650.16 115.23 444.41 40.10 238.59 Z" />
<path fill="#ffffff" opacity="1.00" d=" M 548.09 181.89 C 575.47 176.51 604.05 177.88 630.97 185.03 C 658.46 192.37 685.28 206.20 703.25 228.80 C 717.58 246.56 724.77 269.37 725.24 292.05 C 725.60 298.00 724.79 303.96 724.87 309.89 C 731.04 318.37 729.74 331.05 722.64 338.58 C 722.82 339.29 723.19 340.73 723.38 341.45 C 727.96 342.92 730.46 347.37 731.21 351.88 C 732.13 354.81 731.60 358.62 734.42 360.57 C 739.05 364.44 743.02 369.80 743.16 376.06 C 743.24 380.72 743.48 385.40 742.95 390.04 C 742.47 393.75 740.07 396.74 738.41 399.95 C 739.04 406.52 738.91 413.70 734.57 419.10 C 741.11 432.27 747.85 445.59 750.92 460.08 C 751.75 464.72 753.35 469.25 753.15 474.03 C 752.34 485.61 748.92 497.31 741.66 506.54 C 735.45 515.06 726.47 520.81 718.66 527.70 C 707.14 537.44 696.59 548.23 685.86 558.82 C 679.48 564.94 672.29 571.32 663.13 572.37 C 650.01 573.99 636.54 572.42 623.99 568.38 C 613.29 564.90 603.15 558.24 597.76 548.11 C 582.46 553.92 565.62 552.68 549.86 549.67 C 540.70 547.90 531.84 544.48 524.12 539.21 C 517.50 546.59 508.00 550.72 498.32 552.13 C 486.19 553.90 473.76 552.71 461.94 549.61 C 456.26 548.05 450.46 545.97 446.16 541.79 C 439.52 535.50 435.24 527.28 430.42 519.63 C 421.93 505.37 412.64 491.59 402.44 478.50 C 394.23 467.92 388.87 454.67 389.76 441.11 C 390.49 426.30 397.66 412.75 406.17 400.95 C 411.16 393.99 416.71 387.48 422.26 380.97 C 419.67 374.74 421.25 367.97 423.35 361.86 C 422.01 357.54 420.43 353.00 421.67 348.43 C 422.93 343.80 423.55 338.95 425.58 334.56 C 428.21 329.26 433.48 326.08 438.60 323.54 C 440.71 319.44 442.18 314.85 445.45 311.48 C 447.60 309.11 451.91 309.62 452.70 305.95 C 447.43 297.01 449.31 284.16 457.46 277.53 C 461.05 253.90 470.23 230.42 487.27 213.21 C 503.41 196.43 525.46 186.35 548.09 181.89 M 545.50 186.28 C 524.07 191.01 503.41 201.18 488.40 217.44 C 472.51 234.42 464.12 257.06 460.95 279.81 C 452.76 285.07 451.07 297.82 457.00 305.35 C 455.89 307.78 454.70 310.17 453.57 312.60 C 451.75 312.86 449.60 312.60 448.21 314.04 C 444.84 317.48 443.79 322.37 441.35 326.39 C 436.32 328.98 430.55 331.71 428.43 337.40 C 427.00 341.83 425.94 346.39 425.06 350.96 C 424.33 354.83 426.60 358.24 427.45 361.84 C 425.11 367.98 422.83 375.35 426.92 381.31 C 415.17 395.19 402.59 409.20 396.45 426.64 C 392.25 438.38 392.39 451.73 397.62 463.12 C 401.60 472.61 408.81 480.11 414.59 488.47 C 423.72 500.95 431.50 514.32 439.66 527.42 C 443.88 533.94 448.63 540.93 456.24 543.75 C 468.24 548.32 481.31 549.77 494.08 548.86 C 505.16 547.91 516.60 543.51 523.25 534.16 C 538.06 545.19 556.98 548.26 575.02 548.47 C 583.53 548.47 591.87 546.42 599.78 543.39 C 602.34 549.60 606.80 554.90 612.40 558.59 C 622.30 565.19 634.27 567.87 645.97 568.93 C 653.16 569.24 660.62 569.76 667.56 567.44 C 675.42 564.37 681.25 557.97 687.19 552.24 C 699.44 539.78 712.16 527.74 725.85 516.87 C 732.26 511.93 738.09 506.07 742.17 499.04 C 747.17 490.65 749.04 480.76 749.27 471.11 C 747.96 463.69 746.44 456.25 743.90 449.14 C 740.18 438.41 734.94 428.31 729.87 418.18 C 735.86 413.44 735.31 405.15 734.38 398.37 C 737.14 395.20 739.53 391.35 739.49 387.01 C 739.50 383.05 739.64 379.08 739.33 375.13 C 738.57 369.06 733.84 364.60 729.14 361.20 C 728.30 356.76 727.91 352.11 725.93 348.00 C 724.93 345.72 722.38 345.32 720.21 344.99 C 719.67 342.29 719.07 339.60 718.55 336.90 C 726.14 330.99 727.43 318.23 720.81 311.12 C 723.08 288.54 720.43 264.85 709.33 244.75 C 700.89 229.18 687.91 216.38 672.99 206.99 C 657.96 197.52 641.12 191.14 623.86 187.12 C 598.21 181.33 571.23 180.61 545.50 186.28 Z" />
<path fill="#ffffff" opacity="1.00" d=" M 549.07 191.84 C 573.46 186.72 598.88 187.73 623.11 193.26 C 640.68 197.34 657.70 204.20 672.73 214.23 C 687.42 224.10 699.85 237.71 707.01 254.00 C 715.16 272.21 716.75 292.74 714.44 312.38 C 667.35 306.39 620.18 300.96 573.07 295.19 C 537.69 290.97 502.33 286.57 466.94 282.45 C 469.52 259.67 478.05 236.85 494.29 220.25 C 508.83 205.10 528.72 196.07 549.07 191.84 M 668.09 217.31 C 669.76 219.53 672.33 220.70 674.53 222.29 C 683.33 228.55 690.50 237.02 695.50 246.58 C 702.86 260.57 705.26 276.70 704.48 292.37 C 696.33 295.84 687.14 295.86 678.46 295.05 C 677.08 296.05 675.63 296.93 674.12 297.71 C 686.37 298.73 698.55 300.60 710.78 301.92 C 712.00 283.58 708.73 264.61 699.40 248.61 C 691.92 235.74 681.26 224.40 668.09 217.31 M 502.62 281.88 C 503.35 283.68 505.31 283.55 506.90 283.81 C 512.60 284.40 518.28 285.24 523.99 285.79 C 525.74 285.99 527.89 284.82 529.22 286.48 C 530.71 286.17 532.19 285.82 533.68 285.44 C 523.31 284.34 513.00 282.75 502.62 281.88 M 535.90 285.78 L 535.56 287.30 C 539.11 288.06 542.65 288.84 546.19 289.64 C 546.97 288.83 547.75 288.01 548.54 287.19 C 544.31 286.82 540.12 286.18 535.90 285.78 Z" />
<path fill="#ffffff" opacity="1.00" d=" M 464.14 304.95 C 515.89 311.44 567.70 317.47 619.47 323.80 C 650.31 327.45 681.13 331.35 711.98 334.87 C 711.96 335.64 711.91 337.19 711.88 337.96 C 711.39 337.75 710.42 337.34 709.94 337.14 C 710.43 337.93 710.90 338.74 711.36 339.57 C 711.70 339.48 712.40 339.32 712.75 339.24 C 712.29 342.45 712.34 345.69 712.29 348.93 C 712.26 352.35 710.55 355.39 709.14 358.40 C 708.47 360.34 711.26 359.16 712.00 360.47 C 712.21 357.80 712.28 354.99 713.43 352.52 C 715.92 351.27 718.73 351.01 721.43 350.52 C 722.12 353.04 722.76 355.59 723.27 358.16 C 721.35 358.24 718.09 358.19 718.11 360.89 C 718.02 374.92 717.99 388.96 718.15 402.99 C 718.23 406.30 723.91 406.65 724.80 403.65 C 724.97 402.40 725.09 401.15 725.16 399.89 C 726.37 399.05 727.59 398.23 728.82 397.41 C 729.18 402.58 731.16 409.00 727.20 413.24 C 723.18 415.83 717.95 414.09 713.63 413.24 C 717.41 413.08 721.36 414.23 725.04 412.97 C 728.01 411.55 727.74 407.68 728.21 404.92 C 728.25 402.99 728.68 400.11 726.27 399.50 C 725.70 402.40 725.63 406.70 721.90 407.35 C 717.12 408.03 711.68 405.68 710.00 400.89 C 709.89 401.61 709.65 403.07 709.54 403.80 C 708.99 404.51 708.44 405.23 707.90 405.95 L 707.31 404.13 C 707.26 404.61 707.16 405.57 707.11 406.06 C 706.83 406.42 706.27 407.15 705.99 407.51 C 705.66 405.09 704.91 402.64 705.31 400.19 C 710.97 384.68 714.51 368.49 718.66 352.54 C 717.31 352.89 715.97 353.26 714.64 353.64 C 713.43 360.64 711.80 367.58 710.95 374.64 C 710.45 374.05 709.97 373.46 709.50 372.87 C 709.98 370.65 710.40 368.41 710.76 366.17 C 710.27 366.42 709.29 366.92 708.80 367.17 C 708.51 373.34 706.67 379.34 705.21 385.32 C 704.73 386.65 705.19 388.02 705.80 389.23 C 706.15 387.63 706.85 384.45 707.20 382.86 C 707.69 384.18 708.71 385.59 707.78 387.03 C 706.89 390.90 705.13 394.47 703.59 398.09 C 703.41 402.41 703.93 406.89 706.25 410.63 C 706.74 409.43 707.26 408.25 707.83 407.09 C 707.55 410.45 710.43 412.12 713.19 412.89 C 709.99 412.97 706.22 412.64 704.35 409.65 C 702.05 405.86 701.71 401.16 702.20 396.84 C 702.91 394.21 704.66 391.98 705.67 389.46 C 705.31 389.43 704.59 389.37 704.23 389.34 C 703.01 391.31 702.18 393.55 700.60 395.29 C 701.83 407.64 696.16 420.66 701.61 432.47 C 697.12 431.14 692.55 430.13 688.08 428.77 C 686.41 428.35 685.78 426.53 684.79 425.34 C 693.45 416.59 697.05 404.17 698.15 392.20 C 698.34 392.16 698.74 392.07 698.94 392.03 C 699.06 392.69 699.30 394.00 699.42 394.65 C 699.69 394.73 700.23 394.90 700.51 394.98 C 701.20 390.65 701.10 386.21 700.46 381.88 C 700.12 384.50 700.09 387.15 699.99 389.79 C 699.76 389.86 699.30 390.00 699.07 390.07 C 697.87 386.61 698.26 382.46 700.30 379.37 C 703.69 373.65 706.12 367.44 709.42 361.68 C 708.73 361.35 708.03 361.05 707.35 360.77 C 707.87 362.60 706.34 364.09 705.75 365.70 C 700.34 376.30 694.54 386.77 687.26 396.21 C 683.35 401.09 678.98 406.12 673.01 408.44 C 668.81 410.04 664.58 407.65 660.71 406.22 C 641.94 398.00 624.78 386.62 608.08 374.89 C 619.39 384.93 632.30 393.02 645.33 400.63 C 652.26 404.53 659.37 408.25 667.02 410.55 C 671.87 412.06 676.78 409.37 680.41 406.31 C 687.16 400.73 691.92 393.26 696.62 385.98 C 696.05 399.39 693.06 413.64 683.63 423.76 C 681.53 421.47 679.46 419.13 676.99 417.23 C 682.12 423.07 687.52 429.24 689.17 437.08 C 690.26 441.62 688.67 446.35 685.91 449.98 C 680.40 457.59 674.59 465.38 666.47 470.39 C 662.02 473.09 656.37 474.55 651.38 472.49 C 645.16 470.23 641.12 464.73 636.91 459.95 C 628.73 450.43 618.74 442.69 608.55 435.44 C 596.32 427.23 582.14 420.05 566.99 421.07 C 551.74 422.18 537.14 427.69 523.73 434.81 C 516.58 438.32 509.86 442.63 503.45 447.33 C 499.22 450.41 494.35 453.16 488.97 453.16 C 483.45 453.34 478.55 449.99 475.05 446.00 C 468.99 439.04 465.35 430.41 462.03 421.92 C 459.76 416.56 461.09 410.22 464.72 405.79 C 468.16 400.73 473.34 397.34 478.21 393.82 C 475.57 394.83 473.26 396.50 470.94 398.06 C 464.11 386.17 464.57 371.62 467.27 358.60 C 470.38 367.06 473.28 375.86 478.96 383.02 C 481.80 386.61 486.03 389.72 490.86 389.16 C 503.45 388.21 515.60 384.32 527.53 380.36 C 537.27 376.91 547.15 373.50 556.16 368.38 C 540.18 374.90 523.81 380.59 507.00 384.57 C 501.07 385.86 495.08 387.32 488.98 387.16 C 485.36 386.94 482.57 384.22 480.40 381.57 C 475.33 375.07 472.35 367.25 469.65 359.54 C 466.41 349.28 463.13 338.88 461.86 328.16 C 461.37 329.32 460.44 330.49 460.96 331.83 C 462.15 339.29 464.11 346.60 465.93 353.92 C 465.53 358.12 464.35 362.23 463.92 366.44 C 462.99 367.72 462.58 365.08 462.68 364.45 C 463.09 360.94 463.95 357.51 464.47 354.02 C 462.59 357.92 462.05 362.27 460.96 366.41 C 458.12 359.58 459.15 352.07 459.06 344.88 C 459.54 339.39 459.26 333.77 460.79 328.42 L 459.54 327.74 C 460.04 327.91 461.03 328.25 461.53 328.42 C 459.32 321.40 460.80 313.81 464.98 307.86 C 463.60 309.04 462.86 311.09 461.16 311.81 C 461.21 309.26 463.27 307.27 464.14 304.95 M 474.70 315.79 C 473.56 319.48 473.73 323.49 474.52 327.24 C 475.11 321.87 474.25 314.35 480.19 311.66 C 484.84 310.83 489.58 312.26 494.27 311.69 C 490.56 310.84 486.77 310.47 483.00 310.05 C 479.24 309.36 475.69 312.30 474.70 315.79 M 480.44 314.56 C 478.34 315.99 478.03 318.79 477.81 321.11 C 477.50 326.54 478.45 331.97 479.79 337.22 C 482.07 345.69 485.29 354.13 490.78 361.09 C 492.38 362.89 494.16 365.34 496.91 365.02 C 502.74 364.61 508.33 362.64 513.85 360.83 C 526.71 356.25 539.26 350.74 551.26 344.19 C 556.61 341.10 562.23 338.12 566.46 333.50 C 567.89 332.17 568.42 329.77 566.50 328.59 C 561.89 325.44 556.22 324.45 550.90 323.13 C 529.21 318.61 507.11 316.47 485.08 314.33 C 483.55 314.34 481.81 313.64 480.44 314.56 M 552.94 320.29 C 558.35 322.30 564.38 323.30 568.93 327.09 C 571.20 328.78 570.50 331.83 570.64 334.26 C 571.98 331.47 572.12 327.83 569.48 325.73 C 564.84 322.12 558.77 320.43 552.94 320.29 M 605.00 330.06 C 601.99 331.49 601.06 335.12 602.10 338.10 C 602.53 335.80 602.57 332.90 604.94 331.65 C 610.25 328.75 616.54 329.63 622.27 328.40 C 616.54 327.69 610.31 327.49 605.00 330.06 M 609.51 332.76 C 607.51 333.10 604.49 334.47 605.65 337.02 C 607.50 341.85 611.51 345.42 615.01 349.10 C 627.60 361.08 641.46 371.79 656.34 380.78 C 660.31 382.77 664.31 385.94 668.99 385.47 C 674.34 383.07 678.37 378.55 681.96 374.04 C 687.84 366.28 692.84 357.58 695.09 348.03 C 695.82 345.05 696.07 339.91 692.06 339.36 C 674.74 336.78 657.38 334.37 639.93 332.89 C 629.83 332.14 619.55 331.15 609.51 332.76 M 681.75 334.28 C 686.04 336.01 690.92 335.67 695.12 337.61 C 700.35 341.59 697.42 348.73 697.23 354.18 C 698.67 350.15 700.15 345.85 699.28 341.53 C 698.73 338.51 696.29 335.78 693.16 335.43 C 689.38 334.86 685.57 334.40 681.75 334.28 M 481.37 353.57 C 484.17 359.06 487.31 364.94 492.71 368.27 C 497.83 370.18 503.35 367.82 508.28 366.29 C 504.20 366.64 500.24 367.95 496.12 367.88 C 492.72 367.80 490.52 364.93 488.54 362.56 C 482.53 354.70 478.82 345.31 476.29 335.81 C 476.36 342.05 478.87 347.95 481.37 353.57 M 522.91 360.87 C 529.25 359.59 535.08 356.63 540.95 354.03 C 550.04 349.60 559.30 345.05 566.80 338.15 C 552.92 347.08 537.93 354.08 522.91 360.87 M 604.97 343.03 C 608.77 349.08 614.16 353.89 619.39 358.69 C 626.50 364.89 633.93 370.80 642.04 375.67 C 636.30 370.43 629.97 365.91 624.10 360.83 C 617.33 355.32 611.13 349.19 604.97 343.03 M 710.34 361.32 C 709.79 362.72 709.63 364.18 709.85 365.69 C 711.46 366.30 711.90 361.38 710.34 361.32 M 671.48 387.38 C 666.16 390.52 660.73 385.89 655.70 384.31 C 658.74 386.71 662.31 388.44 666.04 389.49 C 670.02 390.65 673.55 387.85 676.54 385.62 C 684.13 379.25 689.92 370.84 693.82 361.76 C 687.50 371.14 681.43 381.38 671.48 387.38 M 467.92 365.64 C 467.18 375.69 466.67 386.98 472.62 395.68 C 473.93 394.62 475.26 393.57 476.61 392.56 C 476.63 389.67 477.00 386.79 477.67 383.99 C 473.67 378.29 470.74 371.97 467.92 365.64 M 680.38 408.38 C 680.33 411.30 679.97 414.20 679.39 417.05 C 680.47 418.38 681.54 419.72 682.61 421.07 C 690.57 413.61 692.49 402.27 694.54 392.07 C 690.55 398.09 685.82 403.63 680.38 408.38 M 699.33 395.87 C 698.05 406.39 695.15 417.07 688.12 425.27 C 696.63 418.40 699.64 406.84 700.28 396.38 C 700.04 396.26 699.57 396.00 699.33 395.87 Z" />
<path fill="#ffffff" opacity="1.00" d=" M 460.24 312.17 C 460.55 312.85 460.85 313.54 461.15 314.24 C 460.23 316.23 459.81 318.40 459.31 320.52 C 458.84 320.09 457.92 319.22 457.46 318.78 C 458.35 316.57 459.54 314.47 460.24 312.17 Z" />
<path fill="#ffffff" opacity="1.00" d=" M 451.49 318.00 C 454.16 318.96 456.72 320.21 459.05 321.84 C 459.01 323.93 458.99 326.03 459.00 328.13 C 457.50 326.60 457.10 324.67 457.43 322.61 C 456.22 321.92 455.02 321.25 453.81 320.58 C 454.15 337.05 453.47 353.62 455.47 370.00 C 455.09 373.75 452.66 376.81 451.07 380.09 C 455.41 377.70 456.73 372.47 457.53 367.97 C 454.60 354.41 456.95 340.51 457.00 326.80 C 457.58 327.64 458.12 328.51 458.60 329.41 C 458.06 341.84 456.06 354.55 459.18 366.81 C 458.67 372.33 456.75 379.13 450.96 381.20 C 450.37 381.87 449.79 382.54 449.22 383.21 C 453.04 382.52 456.02 380.10 458.16 376.97 C 457.09 383.96 454.80 390.93 450.81 396.82 C 448.72 399.82 445.75 402.37 442.12 403.21 C 435.36 404.97 428.40 406.26 422.10 409.39 C 415.07 412.73 409.38 418.21 404.15 423.85 C 411.33 407.72 423.76 394.83 434.94 381.44 C 439.60 382.08 444.31 382.13 448.98 382.65 C 448.65 382.13 447.99 381.11 447.66 380.59 C 442.22 380.46 435.59 381.63 431.19 377.71 C 428.10 372.66 431.61 366.73 433.28 361.77 C 434.34 362.93 435.38 364.14 436.42 365.34 C 436.11 366.54 435.86 367.75 435.69 368.98 C 436.14 372.07 441.65 372.77 442.31 369.49 C 445.57 356.73 448.60 343.90 451.81 331.13 C 452.11 329.54 452.98 327.63 451.58 326.29 C 450.49 325.57 449.14 325.43 447.93 325.05 C 449.06 322.67 450.24 320.32 451.49 318.00 M 431.97 369.92 C 431.62 372.73 430.80 376.77 434.00 378.26 C 438.57 380.25 443.84 380.73 448.73 379.75 C 451.37 378.39 451.92 375.19 452.13 372.53 C 451.04 374.63 450.06 376.89 448.05 378.30 C 449.72 375.48 450.64 372.34 450.97 369.09 C 448.29 373.77 441.88 375.16 437.21 372.81 C 434.05 371.10 435.25 367.10 435.25 364.23 C 432.46 364.56 432.38 367.77 431.97 369.92 Z" />
<path fill="#ffffff" opacity="1.00" d=" M 446.56 329.51 C 446.10 325.91 449.45 326.63 451.18 327.70 C 447.61 341.85 444.25 356.06 440.66 370.20 C 438.62 370.32 436.69 369.61 436.72 367.20 C 437.22 367.34 438.23 367.64 438.74 367.78 C 443.22 355.02 446.36 341.81 448.37 328.43 L 446.56 329.51 Z" />
<path fill="#ffffff" opacity="1.00" d=" M 712.95 351.11 C 712.98 348.29 712.06 345.13 713.68 342.60 C 713.65 343.61 713.58 345.64 713.54 346.66 L 714.37 346.50 C 714.59 347.72 714.83 348.93 715.09 350.16 C 714.55 350.39 713.49 350.87 712.95 351.11 Z" />
<path fill="#ffffff" opacity="1.00" d=" M 719.65 359.80 C 722.33 358.92 723.93 360.59 723.98 363.19 C 723.54 362.71 722.67 361.75 722.24 361.27 C 720.61 374.76 720.73 388.44 722.08 401.94 C 722.53 401.75 723.42 401.37 723.87 401.18 C 723.60 402.18 723.34 403.18 723.09 404.20 C 722.29 404.13 720.71 404.00 719.92 403.93 C 719.28 402.03 719.54 400.00 719.49 398.05 C 719.62 385.30 719.31 372.55 719.65 359.80 Z" />
<path fill="#ffffff" opacity="1.00" d=" M 458.51 376.34 C 459.71 373.20 460.10 369.87 460.69 366.59 C 460.20 377.22 458.94 389.29 465.98 398.22 C 464.16 393.65 462.25 389.01 461.98 384.03 C 461.18 378.40 461.97 372.74 462.01 367.10 C 462.55 367.80 463.09 368.51 463.64 369.22 C 462.82 379.60 464.03 390.43 469.38 399.56 C 467.99 400.37 466.90 402.08 465.12 401.96 C 460.53 402.06 455.94 402.01 451.35 402.25 C 453.53 399.50 455.31 396.41 456.05 392.95 C 457.29 387.49 458.59 381.97 458.51 376.34 Z" />
<path fill="#ffffff" opacity="1.00" d=" M 708.74 374.82 C 709.24 374.74 710.23 374.59 710.73 374.52 C 710.02 377.62 709.18 380.72 708.91 383.91 C 708.45 383.17 708.01 382.43 707.58 381.69 C 708.12 379.45 709.05 377.17 708.74 374.82 Z" />
<path fill="#ffffff" opacity="1.00" d=" M 430.98 407.45 C 436.10 405.57 441.62 405.62 447.00 405.51 C 452.29 405.54 457.62 405.25 462.87 406.04 C 461.28 408.77 459.87 411.70 459.56 414.89 C 458.95 419.58 461.16 423.95 462.76 428.21 C 466.62 437.61 471.46 447.35 480.28 453.02 C 472.22 461.90 459.67 463.33 449.02 467.44 C 442.84 469.83 436.14 472.84 432.78 478.92 C 430.38 482.91 430.86 487.72 430.95 492.18 C 423.59 481.12 415.85 470.26 409.48 458.59 C 407.90 452.82 409.06 446.53 406.88 440.87 L 406.64 443.71 C 406.19 443.47 405.27 442.99 404.81 442.75 C 404.58 438.04 405.20 433.39 407.32 429.15 C 399.72 436.90 399.78 449.83 404.96 458.89 C 411.07 470.15 418.91 480.34 426.26 490.80 C 430.09 495.97 433.75 501.50 434.93 507.95 C 429.82 499.57 424.33 491.42 418.61 483.44 C 413.16 475.78 406.55 468.77 403.00 459.94 C 399.99 452.44 398.39 443.93 400.49 436.00 C 403.79 430.59 407.51 425.41 411.20 420.25 C 416.75 414.65 423.53 410.12 430.98 407.45 M 440.40 408.84 C 443.73 417.72 447.84 426.28 452.25 434.67 C 454.74 439.27 457.07 444.03 460.38 448.11 C 456.81 438.14 452.08 428.53 449.77 418.14 C 449.42 416.31 449.14 414.40 449.59 412.58 C 451.35 411.44 453.30 410.54 454.74 408.95 C 450.67 405.81 444.82 407.09 440.40 408.84 M 417.20 426.21 C 414.58 429.63 411.12 432.63 409.77 436.84 C 411.31 436.57 413.12 436.57 414.16 435.18 C 418.96 430.29 423.69 425.33 428.66 420.61 C 430.72 418.53 433.53 417.48 435.72 415.58 C 435.69 413.49 432.47 413.67 431.05 414.18 C 425.34 416.67 421.33 421.74 417.20 426.21 M 434.37 423.54 C 428.51 427.11 424.01 432.44 419.69 437.67 C 417.71 440.15 415.40 442.51 414.49 445.65 C 416.07 445.45 417.84 445.27 418.90 443.91 C 423.51 439.19 428.10 434.45 432.83 429.85 C 435.21 427.38 438.50 426.12 441.00 423.79 C 438.96 422.53 436.46 422.19 434.37 423.54 M 438.53 432.62 C 432.01 436.90 427.12 443.14 422.23 449.12 C 420.91 450.63 419.93 452.39 419.15 454.24 C 420.74 454.13 422.53 454.13 423.60 452.73 C 428.59 447.69 433.41 442.48 438.63 437.68 C 440.79 435.64 443.92 434.78 445.55 432.17 C 443.26 431.26 440.60 431.11 438.53 432.62 M 444.53 440.75 C 439.05 443.60 434.98 448.45 430.95 453.01 C 428.38 456.18 425.52 459.21 423.77 462.95 C 425.10 462.86 426.74 463.15 427.74 462.01 C 432.99 456.83 438.00 451.39 443.41 446.36 C 445.54 444.38 448.65 443.58 450.19 440.97 C 448.35 440.29 446.35 439.68 444.53 440.75 M 447.46 450.48 C 441.02 454.93 436.13 461.18 431.24 467.22 C 430.03 468.58 429.18 470.21 428.75 471.99 C 430.32 471.69 432.10 471.53 433.17 470.15 C 437.95 465.25 442.69 460.30 447.66 455.59 C 449.87 453.40 452.94 452.36 455.05 450.06 C 452.71 448.38 449.66 448.82 447.46 450.48 Z" />
<path fill="#ffffff" opacity="1.00" d=" M 709.37 406.97 C 709.69 407.25 709.69 407.25 709.37 406.97 Z" />
<path fill="#ffffff" opacity="1.00" d=" M 701.03 406.60 C 702.55 409.53 704.25 413.19 707.91 413.83 C 712.56 414.65 717.22 415.41 721.90 416.11 C 729.14 431.08 737.89 445.74 741.11 462.25 C 736.93 455.53 732.34 448.79 725.68 444.28 C 720.01 439.98 713.07 437.74 707.39 433.49 C 700.86 426.36 700.51 415.74 701.03 406.60 Z" />
<path fill="#ffffff" opacity="1.00" d=" M 557.90 424.07 C 562.25 423.65 566.58 422.84 570.96 422.99 C 579.94 423.09 588.49 426.42 596.40 430.40 L 596.10 432.57 C 596.79 432.16 598.17 431.35 598.86 430.94 C 598.09 431.62 597.30 432.27 596.51 432.93 C 598.46 433.19 600.27 434.04 602.05 434.83 C 600.51 446.78 599.07 458.75 597.74 470.72 C 594.51 469.90 591.32 468.95 588.22 467.78 C 589.88 455.65 591.02 443.44 592.78 431.33 L 592.94 430.69 C 592.83 430.50 592.61 430.12 592.50 429.92 C 587.05 428.38 581.46 427.41 575.88 426.54 C 579.13 427.91 582.69 428.22 586.10 429.08 C 584.60 441.37 583.06 453.65 581.66 465.95 C 577.95 464.99 574.25 463.94 570.46 463.35 L 571.04 465.25 C 593.36 470.77 614.91 479.01 637.06 485.14 C 645.56 485.84 652.78 479.89 659.35 475.24 C 665.06 486.67 677.71 491.32 687.61 498.24 C 693.34 502.20 699.53 507.43 700.00 514.92 C 699.84 521.25 696.82 527.07 693.79 532.48 C 690.56 537.87 687.20 543.25 683.03 547.96 C 676.14 553.82 669.86 562.09 660.11 562.79 C 646.05 563.72 631.36 561.86 618.76 555.23 C 611.39 551.44 605.59 544.51 604.26 536.20 C 597.33 537.01 591.09 540.47 584.21 541.49 C 575.15 542.90 565.90 542.24 556.88 540.87 C 548.09 539.53 539.27 537.12 531.73 532.25 C 528.19 529.94 524.61 527.67 520.67 526.09 C 517.71 532.68 512.02 537.91 505.13 540.14 C 493.83 544.11 481.53 543.42 469.94 541.28 C 465.00 540.24 459.96 539.09 455.57 536.53 C 450.06 532.89 446.73 526.95 443.25 521.52 C 438.83 513.39 435.81 504.52 433.69 495.53 C 432.77 490.12 431.73 483.90 435.04 479.07 C 438.90 473.32 445.75 470.80 451.98 468.52 C 462.49 464.85 474.63 462.85 482.18 453.88 C 485.62 458.02 489.20 462.11 493.53 465.36 C 495.98 467.16 498.81 468.81 501.96 468.81 C 524.78 468.12 547.52 465.01 570.38 465.37 L 570.32 463.35 C 566.88 463.17 563.43 463.22 559.99 463.40 C 561.36 451.07 562.91 438.77 564.41 426.46 C 567.97 426.49 571.53 426.80 575.08 426.55 C 570.20 425.92 565.28 425.81 560.37 425.64 C 559.51 425.16 558.69 424.64 557.90 424.07 M 594.50 431.07 L 594.39 431.76 C 596.13 433.63 596.23 429.12 594.50 431.07 M 507.84 471.47 C 513.52 472.20 519.27 471.84 524.97 472.34 C 537.33 472.65 549.71 473.61 562.05 472.49 C 544.01 471.70 525.90 470.27 507.84 471.47 M 577.16 474.51 C 588.49 478.13 600.27 480.12 611.87 482.70 C 617.96 483.78 623.99 485.41 630.19 485.80 C 612.73 481.17 594.98 477.52 577.16 474.51 M 549.95 491.10 C 546.01 491.80 543.06 494.72 539.83 496.82 C 535.42 499.78 531.16 503.25 526.05 504.91 C 523.61 504.78 521.32 503.84 519.03 503.08 C 509.99 499.95 500.66 497.09 491.01 497.01 C 483.60 496.95 475.96 499.41 470.67 504.75 C 465.65 509.69 465.07 518.21 468.89 524.02 C 473.17 530.85 483.02 533.05 489.86 528.83 C 497.46 524.57 499.80 513.50 494.60 506.52 C 492.21 502.73 487.94 501.03 483.89 499.70 C 496.21 497.35 508.41 501.55 519.93 505.49 C 522.59 506.30 525.57 507.65 528.29 506.25 C 534.28 503.62 539.41 499.48 544.77 495.81 C 546.35 494.75 547.93 493.54 549.85 493.20 C 555.48 491.99 561.09 490.71 566.73 489.53 C 566.84 489.17 567.08 488.47 567.20 488.12 L 567.00 487.42 C 561.29 488.53 555.65 489.98 549.95 491.10 M 568.13 488.83 C 573.57 493.07 580.66 494.76 586.32 498.70 C 591.65 504.06 595.99 510.42 602.00 515.09 C 604.49 517.26 607.98 516.44 610.98 516.36 C 623.03 515.19 635.84 514.29 647.15 519.49 C 639.28 518.81 631.10 524.08 629.80 532.12 C 627.67 540.97 635.01 550.41 644.09 550.61 C 652.41 551.39 660.27 544.33 660.52 536.00 C 661.10 527.91 654.67 521.36 648.02 517.82 C 636.23 512.10 622.65 513.28 610.00 514.45 C 607.82 514.46 605.29 515.11 603.43 513.66 C 596.94 508.78 592.69 501.60 586.56 496.36 C 580.54 493.34 574.58 490.14 568.40 487.48 C 568.33 487.82 568.20 488.49 568.13 488.83 M 563.19 492.93 C 561.52 506.96 559.83 520.99 558.14 535.02 C 560.65 535.41 563.18 535.71 565.72 536.00 C 567.37 521.95 569.19 507.92 570.78 493.87 C 568.25 493.55 565.71 493.24 563.19 492.93 M 556.52 495.35 C 554.92 507.65 553.61 519.98 552.00 532.28 C 553.46 532.61 554.91 532.92 556.39 533.25 C 558.12 520.80 559.38 508.29 561.04 495.83 C 559.52 495.65 558.02 495.49 556.52 495.35 M 545.93 529.25 C 547.43 529.61 548.92 529.97 550.43 530.34 C 551.96 519.46 553.06 508.54 554.49 497.65 C 552.95 497.43 551.41 497.20 549.88 496.99 C 548.51 507.74 547.32 518.51 545.93 529.25 M 568.39 534.62 C 569.86 534.73 571.34 534.84 572.84 534.96 C 574.43 522.57 575.87 510.17 577.37 497.77 C 575.86 497.61 574.36 497.47 572.86 497.34 C 571.39 509.77 569.83 522.19 568.39 534.62 M 542.81 503.89 C 541.65 511.16 541.08 518.53 540.05 525.82 C 541.48 526.28 542.92 526.74 544.36 527.21 C 545.76 517.73 546.71 508.20 547.87 498.70 C 546.14 500.36 543.96 501.75 542.81 503.89 M 574.87 533.32 C 576.36 533.32 577.86 533.32 579.36 533.33 C 580.70 522.59 582.02 511.84 583.25 501.08 C 581.75 500.90 580.25 500.71 578.77 500.53 C 577.52 511.46 576.11 522.38 574.87 533.32 M 581.45 531.55 C 582.96 531.52 584.48 531.49 586.01 531.47 C 586.89 524.00 588.08 516.55 588.56 509.05 C 587.74 506.97 586.31 505.24 584.98 503.49 C 583.60 512.81 582.68 522.20 581.45 531.55 M 534.98 510.18 C 533.95 513.59 532.88 517.37 533.70 520.89 C 535.22 521.77 536.89 522.37 538.54 523.00 C 539.27 517.02 540.04 511.04 540.67 505.05 C 538.73 506.71 536.64 508.22 534.98 510.18 M 590.35 511.06 C 589.71 517.08 588.85 523.07 588.26 529.09 C 590.09 528.75 591.94 528.42 593.78 528.03 C 594.60 524.66 594.98 521.17 594.82 517.71 C 593.82 515.21 591.90 513.22 590.35 511.06 M 495.98 526.13 C 494.90 527.38 493.87 528.67 492.87 529.99 C 501.92 528.13 512.72 524.55 515.94 514.87 C 509.82 519.40 503.76 524.82 495.98 526.13 M 612.12 526.65 C 613.02 536.69 622.57 542.69 630.85 546.59 C 630.20 545.11 629.58 543.67 628.92 542.22 C 621.63 539.15 617.13 532.38 612.12 526.65 Z" />
<path fill="#ffffff" opacity="1.00" d=" M 557.57 423.76 C 557.54 424.55 557.41 425.34 557.30 426.14 C 556.21 426.17 554.03 426.24 552.94 426.27 L 553.12 426.69 C 554.52 427.12 555.97 427.23 557.48 427.03 C 555.87 439.23 554.64 451.49 552.95 463.68 C 549.72 463.94 546.47 464.04 543.24 464.20 C 544.68 452.19 546.04 440.18 547.63 428.19 C 548.50 428.05 550.25 427.76 551.13 427.61 C 550.19 426.91 549.12 426.47 547.95 426.28 C 549.16 426.41 550.38 426.50 551.62 426.59 C 553.21 424.89 555.74 425.07 557.57 423.76 Z" />
<path fill="#ffffff" opacity="1.00" d=" M 530.44 433.60 C 533.76 432.27 537.11 431.06 540.51 429.98 C 539.05 441.55 537.64 453.12 536.32 464.71 C 533.07 464.98 529.81 465.10 526.57 465.43 C 527.90 454.82 529.08 444.20 530.44 433.60 Z" />
<path fill="#ffffff" opacity="1.00" d=" M 689.54 433.24 C 697.16 434.44 704.58 436.55 712.00 438.59 C 722.45 441.73 730.31 450.15 736.11 459.03 C 738.31 463.86 739.90 468.96 741.88 473.89 C 742.91 476.15 742.54 478.67 742.21 481.05 C 741.05 488.64 737.68 495.83 732.81 501.75 C 726.98 508.97 719.05 513.98 712.20 520.12 C 705.67 525.50 699.77 531.60 693.33 537.07 C 696.79 530.77 702.66 526.47 707.93 521.80 C 715.24 515.52 722.66 509.34 729.41 502.45 C 732.91 498.85 736.68 495.25 738.50 490.46 C 741.25 483.66 742.12 475.23 737.80 468.89 C 739.76 475.63 737.81 482.86 733.71 488.39 C 734.22 486.36 735.23 482.30 735.73 480.27 C 732.14 485.47 731.81 492.13 728.62 497.47 C 719.66 507.17 709.60 515.76 699.98 524.78 C 701.96 519.10 703.16 512.48 699.62 507.13 C 690.29 492.59 669.98 490.11 661.36 474.89 C 673.22 470.71 680.96 460.02 687.73 450.03 C 691.36 445.21 691.30 438.76 689.54 433.24 M 696.79 438.28 C 697.79 440.22 699.52 441.57 701.16 442.97 C 697.65 455.18 688.33 464.47 681.83 475.09 C 685.94 471.81 689.32 467.76 692.86 463.91 C 699.17 456.74 705.31 449.38 710.64 441.44 C 706.82 438.74 701.32 435.99 696.79 438.28 M 713.45 448.04 C 714.49 451.20 717.65 452.82 719.26 455.62 C 722.94 461.35 726.35 467.26 729.82 473.12 C 730.52 474.72 732.12 475.36 733.71 475.84 C 733.60 472.49 731.78 469.62 730.45 466.65 C 727.59 460.80 724.60 454.84 720.05 450.11 C 718.37 448.21 715.86 447.73 713.45 448.04 M 706.59 455.68 C 708.06 458.36 710.66 460.12 712.34 462.66 C 716.35 468.74 719.87 475.12 723.67 481.34 C 724.33 482.64 726.03 482.69 727.21 483.30 C 726.68 479.01 724.25 475.32 722.52 471.46 C 719.72 466.20 716.99 460.62 712.41 456.69 C 710.87 455.02 708.55 455.54 706.59 455.68 M 700.06 462.95 C 701.26 465.88 704.13 467.53 705.76 470.17 C 709.60 476.10 713.10 482.26 716.74 488.32 C 717.39 489.84 719.14 490.07 720.51 490.66 C 719.02 483.69 715.12 477.48 711.66 471.33 C 709.00 467.37 705.75 461.58 700.06 462.95 M 693.33 470.62 C 694.84 473.37 697.60 475.10 699.23 477.78 C 702.92 483.50 706.31 489.41 709.77 495.28 C 710.54 496.93 712.18 497.61 713.87 498.06 C 712.02 490.49 707.94 483.59 703.85 477.01 C 701.51 473.61 698.13 468.66 693.33 470.62 M 686.56 478.07 C 688.13 480.59 690.63 482.31 692.28 484.77 C 696.30 490.85 699.78 497.27 703.64 503.45 C 704.32 504.82 705.97 504.90 707.25 505.40 C 706.54 501.38 704.46 497.81 702.77 494.16 C 699.99 488.86 697.23 483.34 692.82 479.20 C 691.15 477.49 688.72 477.17 686.56 478.07 Z" />
<path fill="#ffffff" opacity="1.00" d=" M 511.39 444.30 C 515.02 441.51 519.10 439.38 523.08 437.15 C 522.00 446.73 520.74 456.29 519.69 465.88 C 515.99 466.03 512.30 466.36 508.61 466.59 C 509.54 459.16 510.26 451.69 511.39 444.30 Z" />
<path fill="#ffffff" opacity="1.00" d=" M 608.51 438.24 C 611.41 440.07 614.38 441.89 616.87 444.29 C 617.50 445.76 616.82 447.44 616.81 448.99 C 615.67 457.94 614.65 466.91 613.54 475.86 C 610.45 474.89 607.37 473.91 604.30 472.94 C 605.66 461.37 607.02 449.79 608.51 438.24 Z" />
<path fill="#ffffff" opacity="1.00" d=" M 404.32 443.75 C 405.35 443.77 406.38 443.79 407.42 443.79 C 407.03 445.93 406.82 448.12 406.49 450.28 C 405.73 448.16 406.74 444.83 404.32 443.75 Z" />
<path fill="#ffffff" opacity="1.00" d=" M 620.17 477.99 C 621.30 468.40 622.51 458.82 623.62 449.23 C 627.02 452.33 630.28 455.58 633.41 458.96 C 632.52 466.40 631.60 473.85 630.76 481.31 C 627.21 480.24 623.68 479.13 620.17 477.99 Z" />
<path fill="#ffffff" opacity="1.00" d=" M 485.76 455.07 C 492.21 455.86 498.33 453.30 503.63 449.87 C 502.91 455.60 502.29 461.34 501.47 467.06 C 494.83 465.33 490.22 459.91 485.76 455.07 Z" />
<path fill="#ffffff" opacity="1.00" d=" M 639.40 466.07 C 643.62 470.76 649.00 474.71 655.41 475.57 C 650.08 479.41 644.21 483.28 637.42 483.53 C 637.94 477.69 638.78 471.89 639.40 466.07 Z" />
<path fill="#ffffff" opacity="1.00" d=" M 479.42 508.51 C 484.24 506.39 490.06 511.22 489.18 516.32 C 488.84 522.02 481.03 525.07 477.00 520.95 C 472.72 517.54 474.29 510.13 479.42 508.51 M 478.28 510.20 C 474.34 512.69 474.70 519.28 479.05 521.14 C 483.18 523.56 488.77 519.75 488.24 515.05 C 488.22 510.30 482.03 507.29 478.28 510.20 Z" />
<path fill="#ffffff" opacity="1.00" d=" M 644.71 527.77 C 650.37 527.26 654.67 534.48 651.22 539.11 C 648.57 543.58 641.37 543.66 638.80 539.07 C 635.55 534.64 639.27 527.73 644.71 527.77 M 643.02 529.09 C 638.64 530.32 637.15 536.45 640.44 539.59 C 643.55 543.14 650.01 541.45 651.12 536.92 C 652.80 532.27 647.60 527.33 643.02 529.09 Z" />
</g>
</svg>
